<svg width="126" height="47" viewBox="0 0 126 47" fill="none" xmlns="http://www.w3.org/2000/svg">
<path d="M18.82 46.204C8.068 46.204 0.452 39.42 0.452 26.876V0.699997H3.78V26.556C3.78 37.244 9.412 43.196 18.948 43.196C27.972 43.196 33.86 37.692 33.86 26.876V0.699997H37.188V26.492C37.188 39.292 29.7 46.204 18.82 46.204ZM49.781 45.5V0.699997H68.597C74.165 0.699997 78.453 2.364 81.205 5.116C83.317 7.228 84.597 10.172 84.597 13.436V13.564C84.597 21.052 78.965 25.34 71.477 26.364L86.261 45.5H82.037L67.765 26.94H53.109V45.5H49.781ZM53.109 23.932H68.213C75.701 23.932 81.269 20.092 81.269 13.692V13.564C81.269 7.484 76.597 3.772 68.405 3.772H53.109V23.932ZM96.031 45.5V0.699997H99.359V42.428H125.663V45.5H96.031Z" fill="black"/>
</svg>
